<?xml version="1.0" standalone="no"?><!DOCTYPE svg PUBLIC "-//W3C//DTD SVG 1.1//EN" "http://www.w3.org/Graphics/SVG/1.1/DTD/svg11.dtd"><svg t="1681652866477" class="icon" viewBox="0 0 1024 1024" version="1.1" xmlns="http://www.w3.org/2000/svg" p-id="4535" width="128" height="128" xmlns:xlink="http://www.w3.org/1999/xlink"><path d="M512 1024a512 512 0 1 1 512-512 512 512 0 0 1-512 512z m0-960a448 448 0 1 0 448 448A448 448 0 0 0 512 64z" p-id="4536" fill="#1296db"></path><path d="M618.56 729.6l-38.08-51.2 100.16-74.24A117.12 117.12 0 0 0 736 512a116.48 116.48 0 0 0-54.08-92.48L305.28 144.96a235.2 235.2 0 0 1-40.96-38.4l49.6-40.64a148.8 148.8 0 0 0 29.12 27.2l375.68 274.24A178.56 178.56 0 0 1 800 512a178.56 178.56 0 0 1-80.32 144zM608 224l-37.76-51.2 110.72-79.68a152 152 0 0 0 29.44-27.52l49.6 40.32a229.44 229.44 0 0 1-41.28 39.04z" p-id="4537" fill="#1296db"></path><path d="M717.76 967.04A142.72 142.72 0 0 0 680.96 928L305.28 655.68A178.56 178.56 0 0 1 224 512a178.56 178.56 0 0 1 80.32-144.32L412.8 288l37.76 51.52-107.52 79.68A116.48 116.48 0 0 0 288 512a117.44 117.44 0 0 0 54.08 92.48l375.68 272.96a214.4 214.4 0 0 1 52.8 55.04zM307.52 963.2L256 925.76a210.24 210.24 0 0 1 49.6-48.32l100.8-73.92 37.76 51.52L343.04 928a160 160 0 0 0-35.52 35.2z" p-id="4538" fill="#1296db"></path><path d="M287.04 448h448v64h-448zM287.04 576h448v64h-448z" p-id="4539" fill="#1296db"></path></svg>