<?xml version="1.0" standalone="no"?><!DOCTYPE svg PUBLIC "-//W3C//DTD SVG 1.1//EN" "http://www.w3.org/Graphics/SVG/1.1/DTD/svg11.dtd"><svg t="1681749253397" class="icon" viewBox="0 0 1024 1024" version="1.1" xmlns="http://www.w3.org/2000/svg" p-id="4731" xmlns:xlink="http://www.w3.org/1999/xlink" width="32" height="32"><path d="M183.111 112H120.89c-4.91 0-8.889 4.214-8.889 9.412v61.176c0 5.198 3.98 9.412 8.889 9.412h62.222c4.91 0 8.889-4.214 8.889-9.412v-61.176c0-5.198-3.98-9.412-8.889-9.412zM903.111 112H840.89c-4.91 0-8.889 4.214-8.889 9.412v61.176c0 5.198 3.98 9.412 8.889 9.412h62.222c4.91 0 8.889-4.214 8.889-9.412v-61.176c0-5.198-3.98-9.412-8.889-9.412zM183.111 832H120.89c-4.91 0-8.889 4.214-8.889 9.412v61.176c0 5.198 3.98 9.412 8.889 9.412h62.222c4.91 0 8.889-4.214 8.889-9.412v-61.176c0-5.198-3.98-9.412-8.889-9.412zM480.889 192h62.222c4.91 0 8.889-4.214 8.889-9.412v-61.176c0-5.198-3.98-9.412-8.889-9.412H480.89c-4.91 0-8.889 4.214-8.889 9.412v61.176c0 5.198 3.98 9.412 8.889 9.412zM543.111 832H480.89c-4.91 0-8.889 4.214-8.889 9.412v61.176c0 5.198 3.98 9.412 8.889 9.412h62.222c4.91 0 8.889-4.214 8.889-9.412v-61.176c0-5.198-3.98-9.412-8.889-9.412zM903.111 832H840.89c-4.91 0-8.889 4.214-8.889 9.412v61.176c0 5.198 3.98 9.412 8.889 9.412h62.222c4.91 0 8.889-4.214 8.889-9.412v-61.176c0-5.198-3.98-9.412-8.889-9.412zM183.111 472H120.89c-4.91 0-8.889 4.214-8.889 9.412v61.176c0 5.198 3.98 9.412 8.889 9.412h62.222c4.91 0 8.889-4.214 8.889-9.412v-61.176c0-5.198-3.98-9.412-8.889-9.412zM903.111 472H840.89c-4.91 0-8.889 4.214-8.889 9.412v61.176c0 5.198 3.98 9.412 8.889 9.412h62.222c4.91 0 8.889-4.214 8.889-9.412v-61.176c0-5.198-3.98-9.412-8.889-9.412zM736 256H288c-17.673 0-32 14.327-32 32v448c0 17.673 14.327 32 32 32h448c17.673 0 32-14.327 32-32V288c0-17.673-14.327-32-32-32z m-40 440H328V328h368v368z" fill="#2c2c2c" p-id="4732"></path></svg>