<?xml version="1.0" standalone="no"?><!DOCTYPE svg PUBLIC "-//W3C//DTD SVG 1.1//EN" "http://www.w3.org/Graphics/SVG/1.1/DTD/svg11.dtd"><svg t="1681749067852" class="icon" viewBox="0 0 1024 1024" version="1.1" xmlns="http://www.w3.org/2000/svg" p-id="3881" xmlns:xlink="http://www.w3.org/1999/xlink" width="32" height="32"><path d="M231.04 241.984h426.944V168c0-6.72 7.68-10.432 12.928-6.272l142.016 112a8 8 0 0 1 0 12.544l-142.08 112a8 8 0 0 1-12.8-6.272V318.016H242.944v469.952h606.016c4.352 0 8 3.648 8 8.064v59.968a8 8 0 0 1-8 8H230.976a64 64 0 0 1-64-64V305.984a64 64 0 0 1 64-64h0.064z" fill="#2c2c2c" p-id="3882"></path></svg>