<?xml version="1.0" standalone="no"?><!DOCTYPE svg PUBLIC "-//W3C//DTD SVG 1.1//EN" "http://www.w3.org/Graphics/SVG/1.1/DTD/svg11.dtd"><svg t="1681748577672" class="icon" viewBox="0 0 1024 1024" version="1.1" xmlns="http://www.w3.org/2000/svg" p-id="3948" xmlns:xlink="http://www.w3.org/1999/xlink" width="32" height="32"><path d="M800 64h-576C134.4 64 64 134.4 64 224v576C64 889.6 134.4 960 224 960h576c89.6 0 160-70.4 160-160v-576C960 134.4 889.6 64 800 64zM128 224C128 172.8 172.8 128 224 128h576c51.2 0 96 44.8 96 96v115.2l-294.4 352-204.8-108.8c-12.8-12.8-25.6-6.4-38.4 6.4l-224 256c0-19.2-6.4-32-6.4-44.8v-576zM800 896h-576c-12.8 0-32-6.4-38.4-12.8l204.8-236.8 198.4 115.2c12.8 6.4 32 6.4 38.4-6.4L896 441.6v358.4c0 51.2-44.8 96-96 96z" fill="#2c2c2c" p-id="3949"></path><path d="M384 448c70.4 0 128-57.6 128-128s-57.6-128-128-128-128 57.6-128 128 57.6 128 128 128z m0-192c38.4 0 64 25.6 64 64s-25.6 64-64 64-64-25.6-64-64 25.6-64 64-64z" fill="#2c2c2c" p-id="3950"></path></svg>