<?xml version="1.0" standalone="no"?><!DOCTYPE svg PUBLIC "-//W3C//DTD SVG 1.1//EN" "http://www.w3.org/Graphics/SVG/1.1/DTD/svg11.dtd"><svg t="1681749074558" class="icon" viewBox="0 0 1024 1024" version="1.1" xmlns="http://www.w3.org/2000/svg" p-id="4091" xmlns:xlink="http://www.w3.org/1999/xlink" width="32" height="32"><path d="M792.96 241.984H366.08V168a8 8 0 0 0-12.928-6.272l-142.016 112a8 8 0 0 0 0 12.544l142.08 112a8 8 0 0 0 12.8-6.272V318.016h415.04v469.952h-606.08a8 8 0 0 0-8 8.064v59.968c0 4.416 3.648 8 8 8h618.048a64 64 0 0 0 64-64V305.984a64 64 0 0 0-64-64h-0.064z" fill="#2c2c2c" p-id="4092"></path></svg>